<?xml version="1.0" standalone="no"?><!DOCTYPE svg PUBLIC "-//W3C//DTD SVG 1.1//EN" "http://www.w3.org/Graphics/SVG/1.1/DTD/svg11.dtd"><svg class="icon" width="200px" height="200.00px" viewBox="0 0 1024 1024" version="1.1" xmlns="http://www.w3.org/2000/svg"><path d="M222.165333 222.165333a409.898667 409.898667 0 0 0 0 579.669334 42.666667 42.666667 0 1 1-60.330666 60.330666C-31.573333 668.757333-31.573333 355.242667 161.834667 161.834667a42.666667 42.666667 0 0 1 60.330666 60.330666z m579.669334-60.330666a42.666667 42.666667 0 0 1 60.330666 0c193.408 193.408 193.408 506.922667 0 700.330666a42.666667 42.666667 0 0 1-60.330666-60.330666 409.898667 409.898667 0 0 0 0-579.669334 42.666667 42.666667 0 0 1 0-60.330666zM371.498667 371.498667a198.698667 198.698667 0 0 0 0 281.002666 42.666667 42.666667 0 1 1-60.330667 60.330667 284.032 284.032 0 0 1 0-401.664 42.666667 42.666667 0 1 1 60.330667 60.330667z m281.002666-60.330667a42.666667 42.666667 0 0 1 60.330667 0c110.933333 110.933333 110.933333 290.730667 0 401.664a42.666667 42.666667 0 0 1-60.330667-60.330667 198.698667 198.698667 0 0 0 0-281.002666 42.666667 42.666667 0 0 1 0-60.330667zM512 597.333333a85.333333 85.333333 0 1 0 0-170.666666 85.333333 85.333333 0 0 0 0 170.666666z" fill="#12122F" /></svg>