<?xml version="1.0" standalone="no"?><!DOCTYPE svg PUBLIC "-//W3C//DTD SVG 1.1//EN" "http://www.w3.org/Graphics/SVG/1.1/DTD/svg11.dtd"><svg class="icon" width="200px" height="200.00px" viewBox="0 0 1024 1024" version="1.1" xmlns="http://www.w3.org/2000/svg"><path d="M524.8 1003.52c-8.704 0-17.408 0-26.624-0.512-104.96-6.144-197.632-46.08-275.456-118.784-76.8-72.192-124.416-160.768-140.8-263.168-22.528-140.8 12.288-267.264 103.936-376.32 49.152-58.368 111.616-102.912 186.368-131.072 4.608-1.536 9.216-2.56 14.336-2.56 12.8 0 24.064 6.144 30.72 16.896 9.728 15.36 7.168 34.304-5.632 46.592-3.584 3.072-8.704 6.144-14.336 8.704-125.44 51.2-204.8 141.312-236.544 267.776-30.72 123.392-5.12 238.08 76.288 340.48 50.176 63.488 115.712 105.984 194.048 126.976 28.672 7.68 59.392 11.776 90.112 11.776 20.48 0 41.984-1.536 63.488-5.12 56.832-8.704 105.472-27.136 148.48-56.832 63.488-43.52 107.008-101.376 128.512-171.52 19.968-65.536 18.944-129.024-4.096-188.416-17.92-46.592-49.152-86.016-95.744-120.832-25.6-19.456-50.688-31.744-77.312-37.888-1.024-0.512-2.56-0.512-4.096-1.024l-32.768-5.12 11.776 44.544c2.048 8.704 4.608 16.896 6.656 25.088 3.072 11.264 6.144 23.04 9.216 34.304l15.36 58.368c15.36 58.88 2.048 110.592-40.96 157.184-33.792 36.352-75.264 54.784-123.392 54.784-6.144 0-12.8-0.512-19.456-1.024-60.416-5.632-104.448-36.864-135.168-94.72-14.336-27.136-22.016-57.856-23.04-93.696-2.56-55.808 10.752-103.424 40.448-145.92 30.72-44.544 74.24-75.776 132.096-96.256l9.216-3.072 23.04-7.68-5.12-18.432c-1.024-3.584-2.048-7.68-3.072-11.264-2.048-7.68-4.096-15.36-6.144-23.552-1.024-4.608-2.048-8.704-3.072-13.312-3.072-11.264-5.632-22.016-7.168-32.768-5.12-41.472 7.168-77.312 36.864-108.544 25.088-26.112 53.76-41.472 87.552-46.08 3.072-0.512 6.144-1.024 8.704-1.536l3.584 0.512h14.848c3.072 0.512 5.632 1.024 8.704 1.536 7.168 1.024 13.312 2.048 19.968 3.584 32.256 7.168 61.952 21.504 88.064 43.008 12.8 10.752 17.408 23.04 13.824 38.4-3.072 13.824-11.264 22.528-25.088 26.624-3.584 1.024-7.68 1.536-11.264 1.536-8.192 0-16.384-3.072-24.576-9.728-25.6-20.48-50.688-30.208-76.288-30.208-3.072 0-6.144 0-9.216 0.512-17.408 1.536-34.304 10.752-46.592 25.6-11.264 13.824-16.896 29.696-15.36 45.056 1.024 9.216 3.072 17.408 5.12 24.576 0.512 2.56 1.536 5.12 2.048 7.68 3.072 12.288 6.144 24.064 9.728 36.352l4.096 14.336c4.608 16.896 16.896 20.48 24.064 20.48 58.368 3.072 111.616 22.528 157.696 57.344 50.688 37.888 86.528 80.384 110.592 130.048 18.432 37.888 29.184 79.36 31.744 122.368 4.096 61.952-4.096 116.736-25.088 166.4-51.712 122.368-143.36 203.264-272.896 240.128-40.96 11.776-82.944 17.408-124.928 17.408z m27.136-649.728c-41.472 13.312-73.216 33.28-95.744 61.952-31.744 39.424-41.472 87.04-30.208 141.824 6.144 30.208 21.504 53.76 45.056 70.144 15.36 10.752 33.792 16.384 52.736 16.384 19.968 0 39.424-6.144 56.32-17.92 34.304-23.552 49.152-62.464 39.424-101.376-6.144-23.552-12.288-47.104-18.432-69.632-2.56-10.24-5.632-20.992-8.192-31.232l-19.968-76.288-20.992 6.144z" /></svg>