<?xml version="1.0" standalone="no"?><!DOCTYPE svg PUBLIC "-//W3C//DTD SVG 1.1//EN" "http://www.w3.org/Graphics/SVG/1.1/DTD/svg11.dtd"><svg class="icon" width="200px" height="193.94px" viewBox="0 0 1056 1024" version="1.1" xmlns="http://www.w3.org/2000/svg"><path d="M653.528306 527.460012c0-16.75613-3.102987-32.891663-9.929559-48.406598-6.205974-14.894338-14.894338-27.926883-26.685688-39.718234s-24.823896-20.479715-39.718234-26.685688c-15.514935-6.826572-31.650468-9.929559-48.406598-9.929559s-33.51226 3.102987-49.027196 9.929559a124.305661 124.305661 0 0 0-66.403923 66.403922c-6.826572 15.514935-9.929559 31.650468-9.929558 48.406598s3.102987 32.891663 9.929558 48.406598a124.305661 124.305661 0 0 0 66.403923 66.403923c15.514935 6.826572 32.271065 9.929559 49.027196 9.929559s32.891663-3.102987 48.406598-9.929559c14.894338-6.205974 27.926883-14.894338 39.718234-26.685688s20.479715-24.823896 26.685688-39.718235c6.826572-15.514935 9.929559-31.650468 9.929559-48.406598z m-188.041015 0c0-17.376727 6.205974-31.650468 18.617922-44.062416q18.617922-18.617922 44.683014-18.617922c17.376727 0 31.650468 6.205974 44.062416 18.617922 12.411948 12.411948 18.617922 26.685689 18.617922 44.062416 0 17.376727-6.205974 31.650468-18.617922 44.062416-12.411948 12.411948-26.685689 18.617922-44.062416 18.617923q-26.065091 0-44.683014-18.617923a59.577351 59.577351 0 0 1-18.617922-44.062416zM393.373872 716.618103c0.620597-1.861792 0.620597-3.723584 0.620597-6.205974 0-1.861792-0.620597-3.723584-1.241195-5.585377 0-2.48239-0.620597-4.344182-1.861792-6.205974-0.620597-1.861792-1.861792-3.102987-3.102987-4.964779-0.620597-1.861792-2.48239-3.102987-3.723584-4.344182-23.582702-22.962104-42.200624-48.406598-54.612572-76.954079-11.791351-27.926883-17.997325-57.094962-17.997325-86.883637 0-29.788676 6.205974-58.956754 17.997325-86.883638 12.411948-28.547481 31.02987-53.991975 54.612572-76.954079 3.102987-2.48239 5.585377-5.585377 6.826571-9.308961 1.861792-3.723584 3.102987-8.067766 3.102987-11.79135 0-4.344182-0.620597-8.067766-1.861792-12.411949a35.498172 35.498172 0 0 0-6.826572-9.929558 29.850735 29.850735 0 0 0-9.929558-7.447169 36.304948 36.304948 0 0 0-11.791351-2.48239c-3.723584 0-8.067766 0.620597-11.791351 1.861792-3.723584 1.861792-7.447169 3.723584-9.929558 6.826572-30.409273 27.926883-53.371377 60.197949-69.50691 97.433793-15.514935 35.374052-22.962104 72.609897-22.962104 111.086937 0 38.477039 7.447169 75.712884 22.962104 111.086936 16.135533 37.235845 39.097637 69.50691 69.50691 97.433793 1.241195 1.861792 3.102987 3.102987 4.344182 3.723585 1.861792 1.241195 3.723584 2.48239 5.585376 3.102987 1.861792 0.620597 3.723584 1.241195 6.205974 1.241195 1.861792 0.620597 3.723584 0.620597 5.585377 0.620597 2.48239 0 4.344182-0.620597 6.205974-0.620597l5.585377-1.861793c1.861792-1.241195 3.723584-1.861792 5.585377-3.102987 1.861792-1.241195 3.102987-2.48239 4.344181-4.344181 1.241195-1.241195 2.48239-3.102987 3.723585-4.96478 1.241195-1.241195 1.861792-3.102987 3.102987-4.964779 0.620597-1.861792 1.241195-4.344182 1.241195-6.205974zM784.536419 413.766567c-16.135533-36.615247-39.097637-68.886312-69.50691-97.433793a33.326081 33.326081 0 0 0-9.929558-6.205975 43.007401 43.007401 0 0 0-12.411948-1.861792c-3.723584 0-8.067766 1.241195-11.791351 3.102987-3.723584 1.241195-6.826572 3.723584-9.929559 6.826572-2.48239 3.102987-4.964779 6.205974-6.205974 9.929558-1.241195 4.344182-1.861792 8.067766-1.861792 12.411949 0 3.723584 1.241195 8.067766 3.102987 11.79135 1.241195 3.723584 3.723584 6.826572 6.826571 9.929559 24.203299 22.341507 42.200624 47.786001 54.612572 76.333481a212.430493 212.430493 0 0 1 0 173.767275c-12.411948 28.547481-30.409273 53.991975-54.612572 76.333481-1.861792 1.861792-3.102987 3.102987-4.344181 4.96478-0.620597 1.241195-1.861792 3.102987-2.48239 4.964779a18.617922 18.617922 0 0 0-2.48239 6.205974c0 1.861792-0.620597 3.723584-0.620597 5.585377 0 2.48239 0 4.344182 0.620597 6.205974 0 1.861792 0.620597 3.723584 1.241195 6.205974 0.620597 1.861792 1.861792 3.723584 2.48239 4.964779a34.443156 34.443156 0 0 0 8.688363 9.308961c1.241195 0.620597 3.102987 1.861792 4.96478 2.48239a18.617922 18.617922 0 0 0 6.205974 2.48239c1.861792 0 3.723584 0.620597 5.585377 0.620597 2.48239 0 4.344182 0 6.205974-0.620597 1.861792 0 3.723584-0.620597 6.205974-1.241195 1.861792-0.620597 3.723584-1.861792 4.964779-2.48239 1.861792-1.241195 3.723584-2.48239 4.964779-3.723584 30.409273-28.547481 53.371377-60.818546 69.50691-97.433794 15.514935-35.99465 23.582702-73.230494 23.582702-111.707533 0-38.477039-8.067766-75.712884-23.582702-111.707534zM173.682389 670.880074C155.064466 624.955865 145.755505 577.169865 145.755505 527.522072s9.308961-97.433793 27.926884-143.358002C192.920908 336.37807 220.847792 294.177446 257.463039 257.562199c1.861792-1.241195 3.102987-2.48239 4.344182-4.344182 0.620597-1.861792 1.861792-3.723584 2.48239-5.585377L266.151403 242.047264c0.620597-1.861792 0.620597-4.344182 0.620597-6.205975s0-4.344182-0.620597-6.205974l-1.861792-5.585376c-0.620597-1.861792-1.861792-3.723584-2.48239-5.585377a14.521979 14.521979 0 0 0-4.344182-4.344182 22.031208 22.031208 0 0 0-9.929559-6.826571 25.196255 25.196255 0 0 0-11.79135-2.48239c-4.344182 0-8.067766 0.620597-11.791351 2.48239-3.723584 1.241195-7.447169 3.723584-9.929559 6.826571C171.199999 256.321004 138.928934 305.348199 115.96683 360.581369 94.24592 413.952746 83.695764 469.806513 83.695764 527.522072c0 57.715559 10.550156 113.569326 32.271066 166.940703 22.962104 55.233169 55.233169 104.260365 98.05439 146.460989 2.48239 3.102987 6.205974 5.585377 9.929559 6.826572 3.723584 1.861792 7.447169 2.48239 11.791351 2.482389s8.067766-0.620597 11.79135-2.482389c3.723584-1.241195 7.447169-3.723584 9.929559-6.826572 1.861792-1.241195 3.102987-2.48239 4.344182-4.344182 0.620597-1.861792 1.861792-3.723584 2.48239-5.585376l1.861792-5.585377c0.620597-1.861792 0.620597-4.344182 0.620597-6.205974s0-4.344182-0.620597-6.205974l-1.861792-5.585377c-0.620597-1.861792-1.861792-3.723584-2.48239-5.585377a14.521979 14.521979 0 0 0-4.344182-4.344182A375.771732 375.771732 0 0 1 173.682389 670.880074zM883.025228 670.880074c-19.23852 47.786001-47.165403 89.986624-83.78065 126.601871-1.861792 1.241195-3.102987 2.48239-4.344182 4.344182-0.620597 1.861792-1.861792 3.723584-2.48239 5.585377l-1.861792 5.585377c-0.620597 1.861792-0.620597 4.344182-0.620597 6.205974s0 4.344182 0.620597 6.205974l1.861792 5.585377c0.620597 1.861792 1.861792 3.723584 2.48239 5.585376 1.241195 1.861792 2.48239 3.102987 4.344182 4.344182 2.48239 3.102987 6.205974 5.585377 9.929558 6.826572 3.723584 1.861792 7.447169 2.48239 11.791351 2.482389s8.067766-0.620597 11.791351-2.482389c3.723584-1.241195 7.447169-3.723584 9.929558-6.826572 42.821221-42.200624 75.092287-91.227819 98.054391-146.460989 21.720909-53.371377 32.271065-109.225144 32.271066-166.940703 0-57.715559-10.550156-113.569326-32.271066-166.940703-22.962104-55.233169-55.233169-104.260365-98.054391-146.460989a22.031208 22.031208 0 0 0-9.929558-6.826571 25.196255 25.196255 0 0 0-11.791351-2.48239c-4.344182 0-8.067766 0.620597-11.791351 2.48239-3.723584 1.241195-7.447169 3.723584-9.929558 6.826571-1.861792 1.241195-3.102987 2.48239-4.344182 4.344182-0.620597 1.861792-1.861792 3.723584-2.48239 5.585377l-1.861792 5.585376c-0.620597 1.861792-0.620597 4.344182-0.620597 6.205974s0 4.344182 0.620597 6.205975l1.861792 5.585376c0.620597 1.861792 1.861792 3.723584 2.48239 5.585377 1.241195 1.861792 2.48239 3.102987 4.344182 4.344182 36.615247 36.615247 64.542131 78.815871 83.78065 126.601871 18.617922 45.924208 27.926883 93.710209 27.926884 143.358002s-9.308961 97.433793-27.926884 143.358002z" /></svg>