<?xml version="1.0" standalone="no"?><!DOCTYPE svg PUBLIC "-//W3C//DTD SVG 1.1//EN" "http://www.w3.org/Graphics/SVG/1.1/DTD/svg11.dtd"><svg class="icon" width="200px" height="200.00px" viewBox="0 0 1024 1024" version="1.1" xmlns="http://www.w3.org/2000/svg"><path d="M686.549333 838.442667a21.333333 21.333333 0 0 1-21.333333-21.333334v-71.125333a119.765333 119.765333 0 0 0-118.314667-120.874667H267.648A119.765333 119.765333 0 0 0 149.333333 745.984v71.125333a21.333333 21.333333 0 0 1-42.666666 0v-71.125333a162.474667 162.474667 0 0 1 160.981333-163.541333h279.253333a162.474667 162.474667 0 0 1 160.981334 163.541333v71.125333a21.333333 21.333333 0 0 1-21.333334 21.333334zM407.296 525.568a163.584 163.584 0 1 1 160.981333-163.541333 162.474667 162.474667 0 0 1-160.981333 163.541333z m0-284.458667a120.917333 120.917333 0 1 0 118.314667 120.874667 119.765333 119.765333 0 0 0-118.314667-120.874667zM896 838.442667a21.333333 21.333333 0 0 1-21.333333-21.333334v-71.125333a120.32 120.32 0 0 0-88.832-116.949333 21.333333 21.333333 0 0 1 10.837333-41.258667 162.986667 162.986667 0 0 1 120.661333 158.250667v71.125333a21.333333 21.333333 0 0 1-21.333333 21.290667zM651.648 521.258667a21.333333 21.333333 0 0 1-5.376-41.984 121.514667 121.514667 0 0 0 0-234.282667 21.333333 21.333333 0 0 1 10.794667-41.258667 164.181333 164.181333 0 0 1 0 316.842667 21.333333 21.333333 0 0 1-5.418667 0.682667z" /></svg>