<?xml version="1.0" standalone="no"?><!DOCTYPE svg PUBLIC "-//W3C//DTD SVG 1.1//EN" "http://www.w3.org/Graphics/SVG/1.1/DTD/svg11.dtd"><svg class="icon" width="200px" height="179.18px" viewBox="0 0 1143 1024" version="1.1" xmlns="http://www.w3.org/2000/svg"><path d="M287.483 1009.108c-40.263-24.548-41.777-33.236-41.314-236.876l0.424-183.58h-25.311c-13.922 0-29.195-3.632-33.95-8.077-4.75-4.444-34.734-31.357-66.636-59.8l-78.979-70.427c-11.623-10.366-22.659-27.687-24.756-38.853-6.46-34.445-4.047-38.23 103.01-161.497 18.182-20.938 35.982-41.298 39.56-45.258 3.58-3.954 29.762-34.805 58.183-68.548 28.422-33.748 65.079-75.204 81.457-92.122 27.561-28.46 32.147-30.758 61.413-30.747l31.63 0.005 11.035 37.55c13.993 47.622 54.114 94.497 98.614 115.217 97.624 45.459 216.876-9.99 247.798-115.216l11.03-37.55 30.202-0.006c29.93-0.011 30.665 0.517 84.039 60.095 29.609 33.056 70.15 78.87 90.085 101.811a35497.232 35497.232 0 0 0 92.982 106.36c67.088 76.43 80.809 97.133 80.842 121.965 0.027 20.398-21.788 44.288-113.103 123.86-28.444 24.794-55.558 48.711-60.259 53.161-4.7 4.44-18.35 8.078-30.338 8.078h-21.793l-1.988 182.626c-2.195 201.913-3.475 208.874-43.34 235.71l-21.967 14.789-268.936-0.028c-255.336-0.027-269.988-0.664-289.634-12.642z m537.932-62.676c5.882-5.883 13.366-17.713 16.623-26.28 3.258-8.569 5.927-115.168 5.927-236.888 0-163.513 2.026-223.34 7.756-229.071 4.265-4.27 15.975-7.756 26.02-7.756 21.307 0 30.866 18.149 30.866 58.597 0 43.329 2.473 41.907 140.73-80.924 14.341-12.74 20.85-23.824 19.57-33.307-1.057-7.816-59.719-79.823-130.37-160.01L814.092 84.991l-16.705 33.53c-22.18 44.506-64.567 85.831-109.765 107.02-33.22 15.566-44.108 17.26-111.169 17.26-67.056 0-77.944-1.688-111.17-17.266-45.758-21.444-88.58-63.52-109.115-107.231-8.617-18.345-17.474-33.471-19.68-33.618-2.205-0.147-35.66 36.766-74.343 82.029-38.683 45.263-95.782 111.131-126.894 146.372-33.062 37.458-56.55 69.735-56.538 77.704 0.027 9.173 23.29 34.331 71.266 77.04 56.216 50.045 74.022 62.53 84.464 59.218 10.583-3.361 12.914-8.928 11.667-27.86-2.473-37.415 5.136-52.753 26.155-52.753 9.995 0 21.324 3.802 25.186 8.453 4.674 5.632 7.631 85.254 8.873 238.674l1.852 230.22 15.676 16.673 15.67 16.673h237.596c212.48 0 238.733-1.128 248.298-10.698z m-205.862-290.98c-9.293-9.292-3.503-27.707 12.723-40.47l17.033-13.398h-90.94c-85.973 0-91.169-0.725-95.145-13.236-9.102-28.694 3.682-32.016 123.19-32.016 61.495 0 116.41 1.764 122.036 3.921 19.282 7.402 10.186 28.994-26.945 64-34.87 32.866-51.772 41.38-61.952 31.2zM464.068 507.458c-2.184-5.702-3.976-11.509-3.976-12.909 0-1.405 17.974-20.19 39.93-41.75 40.192-39.445 53.254-44.39 65.58-24.826 5.31 8.443 2.206 14.723-15.093 30.519l-21.787 19.897 93.358 1.797 93.358 1.803v32.321l-123.697 1.754c-108.555 1.542-124.187 0.49-127.673-8.606z m19.472-131.23c21.788-13.987 41.587-28.623 43.994-32.522 2.413-3.906 10.262-10.24 17.446-14.086 11.504-6.155 12.3-5.583 6.7 4.815-13.813 25.622-56.429 56.01-88.353 62.987-15.224 3.322-10.872-1.236 20.213-21.194zM292.799 1010.72c-44.746-22.043-45.982-28.399-46.01-236.211l-0.021-185.856-21.014-0.044c-11.553-0.027-28.89-5.24-38.52-11.59C154.542 555.46 25.905 431.55 19.946 415.875c-11.836-31.14-1.9-46.979 110.461-176.03 19.555-22.463 38.553-44.076 42.224-48.03 3.666-3.955 31.112-36.281 60.988-71.838C319.63 17.62 324.815 13.312 361.98 13.312c31.754 0 31.825 0.049 35.752 24.238 8.062 49.692 50.797 105.805 97.302 127.782 69.964 33.052 166.607 16.325 214.19-37.076 22.953-25.763 48.237-77.361 48.237-98.44 0-16.635 1.063-17.114 33.515-15.224 32.904 1.917 34.26 2.821 75.313 50.437 22.996 26.668 52.333 60.122 65.198 74.344 87.312 96.534 186.619 214.136 196.619 232.835 15.436 28.868 9.831 54.332-17.256 78.363a47910.836 47910.836 0 0 0-75.601 67.377c-70.558 62.998-82.329 70.705-107.913 70.705h-21.188l-0.027 185.856c-0.022 170.436-1.035 187.506-12.168 205.77-24.94 40.894-29.701 41.515-318.475 41.352-230.051-0.131-263.413-1.417-282.678-10.905z m519.86-56.51c13.213-5.523 25.104-16.335 28.884-26.275 3.796-9.99 6.422-106.747 6.422-236.697 0-139.15 2.45-224.381 6.688-232.3 7.582-14.163 33.509-16.684 43.82-4.26 3.764 4.537 7.756 22.691 8.878 40.344 1.542 24.413 4.728 32.616 13.307 34.244 11.743 2.234 112.465-79.016 143.125-115.45 17.332-20.6 16.504-30.976-4.183-52.535-4.531-4.717-38.726-43.492-75.999-86.157-37.267-42.665-70.667-80.706-74.224-84.535-22.413-24.13-84.796-95.913-88.538-101.866-5.555-8.84-6.334-7.898-23.35 28.018-37.425 79.023-123.37 129.291-221.031 129.291-104.677 0-193.613-56.429-227.312-144.215l-9.456-24.62-64.24 73.053c-35.333 40.176-71.788 81.806-81.026 92.498-9.227 10.697-38.487 44.174-65.013 74.398-26.526 30.219-50.03 59.702-52.224 65.52-5.774 15.3 6.236 29.423 78.608 92.454 75.297 65.58 86.713 68.107 89.763 19.902 2.315-36.591 9.669-48.585 29.795-48.585 29.184 0 29.592 3.317 29.592 240.171 0 244.518 1.122 253.032 35.399 267.962 29.837 13.001 441.082 12.69 472.314-0.36zM618.435 653.241c-6.291-10.18 2.849-31.586 16.635-38.96 6.874-3.683 12.495-8.77 12.5-11.308 0-2.544-39.996-4.625-88.892-4.625h-88.892l-2.042-17.773-2.048-17.778h123.457c148.785 0 150.484 1.068 93.445 58.706-36.128 36.51-55.34 46.014-64.163 31.738zM471.007 513.373c-10.92-10.921-1.775-27.97 33.994-63.369 32.811-32.463 39.92-36.82 48.487-29.712 14.178 11.77 12.528 21.548-6.672 39.56l-16.71 15.67 92.666 3.236 92.666 3.23v32.321l-119.993 1.76c-65.993 0.964-121.992-0.25-124.438-2.696z m8.481-127.09c0-1.264 13.819-12.065 30.704-23.994 22.18-15.67 27.125-17.588 17.794-6.901-11.514 13.192-48.498 36.755-48.498 30.894zM289.895 1008.15c-41.161-21.717-43.133-32.6-43.133-238.282V588.653h-22.397c-24.647 0-29.707-3.737-135.026-99.737-67.132-61.189-76.087-74.234-70.613-102.863 3.176-16.623 268.91-335.13 301.427-361.286 16.405-13.198 68.063-15.638 71.505-3.377 20.06 71.51 39.816 102.852 83.255 132.085 16.809 11.307 46.532 23.873 66.048 27.926 92.557 19.216 189.995-41.865 213.204-133.649 7.838-30.981 8.105-31.22 36.673-33.127l28.787-1.923 77.197 88.51c42.458 48.684 110.211 126.241 150.561 172.349 78.707 89.943 95.107 117.248 85.537 142.423-6.427 16.917-46.26 56.254-128.332 126.747-44.098 37.866-57.42 45.922-75.962 45.922h-22.484l-0.027 185.856c-0.022 170.43-1.03 187.506-12.163 205.764-24.957 40.922-29.669 41.532-318.475 41.216-248.903-0.272-261.97-0.882-285.582-13.34z m542.475-65.923l15.595-18.138V697.763c0-143.643 2.445-230.89 6.688-238.826 7.582-14.162 33.509-16.683 43.82-4.26 3.764 4.538 7.756 22.714 8.878 40.405 1.83 29.059 3.519 32.158 17.517 32.158 17.25 0 145.375-107.683 152.838-128.452 2.696-7.5-0.207-17.811-7.648-27.174-25.747-32.37-251.386-286.399-254.747-286.785-1.96-0.224-10.006 12.854-17.882 29.075-22.01 45.306-66.898 89.11-112.798 110.08-36.009 16.449-47.54 18.432-108.315 18.611-64 0.196-70.553-1.045-111.088-21.002-49.511-24.375-94.475-70.025-112.765-114.492-6.58-16.003-13.857-28.378-16.166-27.501-2.315 0.871-15.404 14.957-29.092 31.297-13.687 16.34-72.159 84.082-129.933 150.544-57.78 66.457-105.075 124.356-105.107 128.676-0.06 9.074 118.397 122.842 139.89 134.345 24.37 13.045 34.707 3.726 34.707-31.28 0-17.18 3.492-34.724 7.756-38.989 11.875-11.874 36.254-9.232 43.738 4.744 4.238 7.93 6.689 94.42 6.689 236.38 0 140.55 2.467 228.484 6.623 236.262 16.45 30.73 26.58 31.852 273.534 30.267l231.669-1.481zM618.964 649.014c-2.609-6.797 1.89-17.026 12.24-27.833 8.998-9.39 16.362-19.096 16.362-21.57 0-2.472-40.933-4.493-90.957-4.493-90.624 0-90.945-0.054-88.886-14.543 2.048-14.417 3.132-14.564 122.531-16.302 146.792-2.14 149.662-0.272 88.097 57.153-43.079 40.187-52.818 44.708-59.387 27.588zM470.866 513.236c-11.057-11.057-1.231-28.977 34.663-63.22 32.213-30.72 40.628-35.808 48.488-29.283 13.502 11.204 11.917 19.244-7.866 39.893l-17.37 18.132h87.694c70.057 0 89.306 1.95 95.733 9.695 6.422 7.735 6.422 11.657 0 19.391-6.596 7.952-28.65 9.695-122.542 9.695-62.965 0-116.43-1.933-118.795-4.303zM301.71 1012.649c-10.665-4.739-26.663-16.493-35.552-26.112l-16.16-17.5-1.885-192.475-1.885-192.479-15.13 2.892c-22.73 4.347-40.53-7.712-129.324-87.595-76.365-68.7-81.267-74.562-81.267-97.144 0-13.22 4.973-31.227 11.052-40.018 15.43-22.32 280.347-330.948 292.52-340.796 5.475-4.428 22.741-7.337 38.363-6.465 27.942 1.563 28.53 2.07 35.84 30.992C445.44 232.492 717.41 228.635 756.18 40.884c4.832-23.389 6.166-24.413 34.136-26.254l29.107-1.917 151.64 174.88c83.406 96.191 155.125 182.866 159.373 192.621 14.924 34.223 9.336 41.914-100.548 138.339-68.014 59.68-83.151 70.1-101.817 70.1h-21.929v181.651c0 208.33-1.498 215.803-47.894 238.26-26.106 12.636-38.389 13.203-282.22 12.963-197.992-0.201-259.253-2.179-274.318-8.878z m530.66-70.427l15.595-18.138V697.083c0-202.159 1.17-228.298 10.697-238.827 24.974-27.593 47.48-9.602 47.48 37.954 0 32.169 0.98 34.26 16.046 34.26 10.948 0 36.113-17.67 79.191-55.617 68.467-60.313 79.306-71.838 79.306-84.35 0-4.515-60.204-76.57-133.785-160.125L813.11 78.456l-18.077 37.67c-19.718 41.09-60.34 82.683-101.017 103.435-65.77 33.552-176.406 31.58-242.372-4.32-38.585-21.002-84.84-72.262-99.246-109.998-5.828-15.25-12.828-26.896-15.567-25.888C327.86 82.666 84.273 365.24 76.658 381.179c-6.972 14.602-3.317 19.412 60.33 79.267 88.744 83.456 109.774 89.616 109.774 32.152 0-43.264 23.302-60.731 48.025-36.003 8.85 8.846 10.158 39.468 10.158 237.748 0 245.395 0.458 248.875 34.63 262.966 7.62 3.138 118.104 5.115 245.527 4.38l231.669-1.324zM621.48 649.804c-6.955-8.388-4.858-13.48 13.226-32.136l21.498-22.18-93.211-1.797c-88.298-1.71-93.211-2.484-93.211-14.733 0-12.408 4.902-13.002 121.213-14.69 111.616-1.618 121.208-0.866 121.208 9.51 0 10.458-68.684 85.983-78.194 85.983-2.343 0-7.98-4.483-12.528-9.957zM466.558 502.07c0-11.127 71.217-81.304 82.628-81.413 16.548-0.163 16.025 20.082-0.98 37.828-9.352 9.76-17.005 19.042-17.01 20.627 0 1.58 39.995 2.876 88.891 2.876 87.258 0 88.93 0.272 90.957 14.543l2.07 14.548H589.835c-101.093 0-123.278-1.623-123.278-9.009zM309.095 1015.269c-10.158-3.121-24.374-10.932-31.591-17.36-28.372-25.256-30.742-43.329-30.742-234.305 0-158.36-1.214-180.545-9.711-177.282-20.333 7.805-44.022-6.28-111.41-66.26-97.628-86.877-105.134-95.609-105.134-122.13 0-17.88 7.49-31.307 36.913-66.156C158.987 211.478 247.258 108.511 287.488 63.412c42.85-48.047 45.84-50.1 72.965-50.1 25.628 0 28.64 1.667 32.066 17.778 14.2 66.68 68.739 129.536 127.553 147.004 72.584 21.553 132.085 6.346 185.36-47.381 33.847-34.125 40.242-45.982 55.47-102.858 3.15-11.77 8.432-14.527 27.698-14.445 13.094 0.055 27.103 2.233 31.128 4.848 4.031 2.614 40.05 42.567 80.052 88.788 249.262 288.016 232.622 266.97 232.622 294.22 0 24.255-3.415 28.291-87.034 102.901-83.538 74.54-108.348 90.276-129.514 82.155-8.497-3.263-9.712 19.445-9.734 181.923-0.022 172.615-0.91 187.103-12.62 206.314-27.425 44.975-19.8 43.853-307.053 45.187-142.38 0.654-267.188-1.356-277.352-4.477z m518.978-68.412l19.892-16.733V702.65c0-195.426 1.416-229.507 10.06-241.849 11.073-15.807 28.34-18.628 40.36-6.607 4.271 4.265 7.757 23.176 7.757 42.017 0 33.105 0.6 34.26 17.778 34.102 13.236-0.114 35.546-16.062 87.275-62.36 38.917-34.838 69.49-67.258 69.49-73.69 0-13.416-9.478-25.322-113.038-141.988-42.714-48.122-94.91-107.16-115.995-131.191l-38.324-43.7-15.142 31.853c-34.45 72.491-95.373 116.861-178.731 130.178-46.69 7.463-108.032 1.014-147.255-15.468-54.12-22.74-108.239-80.798-126.066-135.234-5.9-18.002-8.421-15.561-139.961 135.626-73.674 84.681-133.948 159.308-133.948 165.839 0 6.53 10.91 22.206 24.243 34.837 125.691 119.057 144.423 127.76 150.414 69.905 1.841-17.779 5.648-35.96 8.464-40.405 8.045-12.712 28.509-9.46 39.544 6.286 8.639 12.342 10.06 46.423 10.06 241.85v227.474l19.887 16.738 19.892 16.733h463.463zM621.1 649.34c-7.468-9.003-5.812-12.963 12.14-28.999 11.433-10.218 20.786-20.071 20.786-21.896 0-1.83-40.726-3.328-90.5-3.328h-90.503v-32.321h116.561c141.073 0 143.208 1.449 86.55 58.706-20.823 21.04-39.778 38.258-42.12 38.258-2.342 0-8.154-4.684-12.909-10.42z m-150.076-147.08c-4.919-12.816 69.267-84.54 82.28-79.55 14.613 5.61 12.788 12.38-8.945 33.198-10.54 10.098-17.636 20.828-15.779 23.835 1.863 3.012 43.94 5.48 93.505 5.48 85.815 0 90.123 0.615 90.123 12.925 0 12.462-4.308 12.93-118.903 12.93-94.459 0-119.596-1.813-122.281-8.818zM282.406 1001.298c-33.465-26.325-35.644-40.873-35.644-238.33 0-174.424-0.48-181.5-12.075-177.817-20.666 6.558-40.46-5.921-117.216-73.903-88.385-78.292-96.637-87.95-96.822-113.44-0.164-22.8-3.628-18.307 172.958-224.501l131.486-153.53h62.97l9.88 33.934c21.843 75.062 84.552 126.328 162.06 132.483 47.518 3.769 82.89-5.099 120.156-30.132 36.668-24.62 62.475-59.904 74.785-102.22l9.897-34.065h28.05c26.69 0 30.018 2.25 69.028 46.532a21171.854 21171.854 0 0 0 64.343 72.726c135.403 151.884 206.14 239.796 206.14 256.175 0 29.184-4.646 35.153-76.168 97.835-104.83 91.888-111.986 96.975-132.227 94.007l-17.865-2.626v180.099c0 195.78-2.211 210.476-35.639 236.773-17.647 13.878-20.48 14.014-294.05 14.014s-276.4-0.136-294.047-14.014z m543.041-48.063c8.694-5.697 18.76-20.97 22.36-33.939 3.818-13.753 6.563-113.958 6.585-240.46 0.038-219.294 1.362-232.4 23.492-232.4 17.021 0 28.258 20.48 28.258 51.484 0 38.623 12.724 46.303 41.668 25.153 50.296-36.755 132.875-118.484 132.875-131.507 0-12.468-36.64-56.048-224.91-267.499l-42.403-47.626-17.653 34.914c-22.643 44.772-61.102 84.224-104.296 106.986-32.092 16.907-39.064 17.996-114.97 17.996-77.694 0-82.155-0.746-115.827-19.39-47.388-26.238-82.923-63.51-103.735-108.812l-17.32-37.691L227.556 198.64c-61.604 70.509-121.758 139.492-133.67 153.284-11.918 13.797-21.668 31.51-21.668 39.364 0 21.297 132.75 139.139 156.765 139.166 16.994 0.022 17.778-1.39 17.778-31.842 0-33.961 12.62-54.43 31.33-50.83 22.975 4.428 25.312 27.109 25.976 252.296 0.36 121.165 2.353 225.672 4.44 232.236 9.188 28.95 24.82 30.747 269.79 31.025 201.625 0.223 233.364-1.073 247.15-10.104zM622.614 651.161c-5.463-6.58-2.615-12.926 12.14-27.066 10.6-10.158 19.282-21.558 19.282-25.338 0.006-4.63-29.576-6.182-90.504-4.766-87.977 2.048-90.51 1.726-90.51-11.313 0-13.1 2.855-13.416 119.59-13.416 91.41 0 119.596 1.907 119.596 8.083 0 7.343-72.371 82.416-79.452 82.416-1.65 0-6.215-3.867-10.142-8.6zM473.023 499.69c0-6.428 15.85-27.333 35.219-46.462 30.458-30.077 36.619-33.629 45.535-26.232 9.243 7.67 8.28 10.643-9.368 28.846-10.818 11.166-19.669 22.262-19.669 24.658 0 2.402 41.45 5.175 92.117 6.155 76.778 1.498 92.121 3.415 92.121 11.493 0 8.203-18.203 9.967-117.977 11.46-110.113 1.645-117.978 0.98-117.978-9.913zM284.111 999.119c-16.204-11.013-25.981-23.944-30.557-40.404-3.889-14.02-6.732-98.359-6.754-200.367l-0.038-176.16H224.3c-18.313 0-30.993-7.463-68.668-40.4a11871.444 11871.444 0 0 0-80.232-69.5c-18.715-15.998-38.721-36.805-44.462-46.244C8.214 388.679-3.52 405.488 265.145 90.482c56.62-66.385 62.448-70.705 95.336-70.705 25.643 0 28.585 1.64 31.842 17.779 11.155 55.28 51.33 105.978 106.267 134.1 28.23 14.456 92.509 19.8 126.725 10.54C687.202 165.44 742.847 109.06 758.501 47.25c6.792-26.83 7.593-27.474 33.96-27.474 30.121 0 31.124 0.964 168.688 161.607 74.257 86.713 146.955 169.93 152.51 174.549 8.694 7.244 18.738 32.43 18.738 46.978 0 19.462-24.756 46.385-106.66 115.996-73.455 62.42-89.038 72.11-106.91 66.434-12.396-3.932-12.685 0.082-12.685 177.626 0 202.066-2.38 216.304-40.012 239.251-20.557 12.528-31.995 13.045-289.792 13.073l-268.397 0.016z m538.962-42.507c28.922-15.474 31.357-36.75 31.357-273.79 0-213.596 0.523-223.286 12.457-229.675 25.61-13.704 38.988 4.194 39.168 52.393 0.103 27.256 12.636 35.54 35.224 23.285 12.07-6.547 93.184-77.056 130.642-113.56 10.986-10.703 11.351-36.254 0.686-47.644-4.444-4.738-28.4-31.863-53.226-60.258-24.826-28.4-55.704-63.27-68.613-77.491a22062.298 22062.298 0 0 1-79.807-88.887c-30.987-34.663-57.35-63.03-58.586-63.03-1.236 0-9.325 15.273-17.969 33.939-18.77 40.535-57.976 80.564-103.734 105.924-31.57 17.495-37.692 18.519-110.985 18.519-71.494 0-80.4-1.389-113.647-17.73-46.472-22.838-86.893-64.163-108.631-111.076l-17.256-37.234-28.917 31.591c-15.905 17.375-37.643 41.723-48.313 54.109a14197.226 14197.226 0 0 1-61.767 70.819C89.148 354.5 72.22 375.939 72.22 390.046c0 10.387 18.737 32.169 63.03 73.298 34.67 32.185 69.366 61.897 77.106 66.031 23.149 12.365 34.407 3.214 34.407-27.969 0-37.076 17.479-59.915 37.605-49.141 14.085 7.538 14.113 7.936 14.113 230.563 0 235.057 2.456 257.378 30.099 273.446 16.563 9.63 476.552 9.94 494.5 0.338zM625.62 649.51c-2.963-7.723 1.923-17.778 15.377-31.662 10.85-11.193 17.735-22.338 15.3-24.772-2.435-2.43-44.664-4.423-93.849-4.423-75.182 0-89.425-1.542-89.425-9.695 0-8.263 17.239-9.696 116.36-9.696 90.297 0 116.36 1.852 116.36 8.28 0 4.558-17.049 25.158-37.893 45.78-31.63 31.303-38.607 35.627-42.23 26.188zM473.023 501.52c0-5.25 16.34-25.894 36.314-45.873 31.727-31.722 37.506-35.132 45.698-26.94 8.187 8.187 6.863 11.482-10.463 26.063-36.44 30.66-29.184 33.901 70.661 31.581 87.977-2.048 90.51-1.732 90.51 11.313 0 13.083-2.898 13.415-116.36 13.415-98.364 0-116.36-1.476-116.36-9.553z" /></svg>