<?xml version="1.0" standalone="no"?><!DOCTYPE svg PUBLIC "-//W3C//DTD SVG 1.1//EN" "http://www.w3.org/Graphics/SVG/1.1/DTD/svg11.dtd"><svg class="icon" width="200px" height="200.00px" viewBox="0 0 1024 1024" version="1.1" xmlns="http://www.w3.org/2000/svg"><path d="M512 73.142857a146.285714 146.285714 0 0 0-146.285714 146.285714v219.428572a146.285714 146.285714 0 1 0 292.571428 0V219.428571a146.285714 146.285714 0 0 0-146.285714-146.285714z m0-73.142857a219.428571 219.428571 0 0 1 219.428571 219.428571v219.428572a219.428571 219.428571 0 1 1-438.857142 0V219.428571a219.428571 219.428571 0 0 1 219.428571-219.428571z" fill="#8492A6" /><path d="M834.56 506.148571a36.571429 36.571429 0 0 1 71.606857 14.774858 402.432 402.432 0 0 1-787.602286 2.413714 36.571429 36.571429 0 1 1 71.533715-15.213714 329.289143 329.289143 0 0 0 644.388571-1.974858z" fill="#8492A6" /><path d="M475.428571 768m36.571429 0l0 0q36.571429 0 36.571429 36.571429l0 146.285714q0 36.571429-36.571429 36.571428l0 0q-36.571429 0-36.571429-36.571428l0-146.285714q0-36.571429 36.571429-36.571429Z" fill="#8492A6" /><path d="M365.714286 950.857143m36.571428 0l219.428572 0q36.571429 0 36.571428 36.571428l0 0q0 36.571429-36.571428 36.571429l-219.428572 0q-36.571429 0-36.571428-36.571429l0 0q0-36.571429 36.571428-36.571428Z" fill="#8492A6" /></svg>