<?xml version="1.0" standalone="no"?><!DOCTYPE svg PUBLIC "-//W3C//DTD SVG 1.1//EN" "http://www.w3.org/Graphics/SVG/1.1/DTD/svg11.dtd"><svg class="icon" width="200px" height="200.00px" viewBox="0 0 1024 1024" version="1.1" xmlns="http://www.w3.org/2000/svg"><path d="M831.872 221.568a64 64 0 0 1 64 68.456727l-35.828364 532.945455a81.245091 81.245091 0 0 1-80.605091 72.925091H244.584727a79.965091 79.965091 0 0 1-79.965091-72.925091l-36.456727-532.957091a64 64 0 0 1 64-68.456727zM533.236364 359.237818l-3.968 0.512a25.6 25.6 0 0 0-17.908364 8.96 37.748364 37.748364 0 0 0-6.4 21.108364v237.381818a96.581818 96.581818 0 0 0-19.781818-5.76 122.181818 122.181818 0 0 0-31.348364 0 158.650182 158.650182 0 0 0-36.468363 6.981818 85.725091 85.725091 0 0 0-34.548364 23.668364 49.256727 49.256727 0 0 0-16.628364 35.188363 64 64 0 0 0 10.88 35.188364 85.189818 85.189818 0 0 0 32.581818 26.228364 89.879273 89.879273 0 0 0 46.056728 9.6 128 128 0 0 0 42.856727-9.6 88.32 88.32 0 0 0 26.868364-19.781818 56.936727 56.936727 0 0 0 14.08-23.668364 64 64 0 0 0 3.2-23.668364v-236.101818a10.24 10.24 0 0 1 5.12-9.6c3.84-1.28 8.32 0.64 14.708363 6.4a335.243636 335.243636 0 0 0 25.6 23.028364 87.133091 87.133091 0 0 0 34.548364 15.988363 49.896727 49.896727 0 0 1 27.508364 11.52 38.4 38.4 0 0 1 11.52 24.948364 40.948364 40.948364 0 0 0 3.2 14.08 6.714182 6.714182 0 0 0 5.76 4.48q3.258182 1.245091 7.68-5.76a50.536727 50.536727 0 0 0 5.76-16.628364 49.896727 49.896727 0 0 0 0-21.748363 44.776727 44.776727 0 0 0-12.16-23.668364 74.856727 74.856727 0 0 0-18.548364-17.268364l-16.628364-8.96-18.548363-7.68a146.501818 146.501818 0 0 1-22.446546-14.72 104.273455 104.273455 0 0 1-24.308363-22.388363 170.170182 170.170182 0 0 1-15.348364-20.468364 64 64 0 0 0-12.16-13.44 15.348364 15.348364 0 0 0-14.708364-3.84z m212.910545-231.074909a79.325091 79.325091 0 0 1 77.405091 64H199.808a79.325091 79.325091 0 0 1 77.405091-64z" /></svg>