<?xml version="1.0" standalone="no"?><!DOCTYPE svg PUBLIC "-//W3C//DTD SVG 1.1//EN" "http://www.w3.org/Graphics/SVG/1.1/DTD/svg11.dtd"><svg class="icon" width="200px" height="200.00px" viewBox="0 0 1024 1024" version="1.1" xmlns="http://www.w3.org/2000/svg"><path d="M303.104 143.36h417.792c24.576 0 47.104 8.192 67.584 20.48l34.816 24.576c10.24 6.144 12.288 18.432 6.144 28.672-4.096 4.096-10.24 8.192-16.384 8.192H210.944c-12.288 0-20.48-8.192-20.48-20.48 0-6.144 4.096-12.288 8.192-16.384L235.52 163.84c20.48-12.288 43.008-20.48 67.584-20.48z" fill="#373d56" /><path d="M143.36 266.24h737.28c22.528 0 40.96 18.432 40.96 40.96v532.48c0 22.528-18.432 40.96-40.96 40.96H143.36c-22.528 0-40.96-18.432-40.96-40.96V307.2c0-22.528 18.432-40.96 40.96-40.96z m387.072 505.856l163.84-122.88c14.336-10.24 16.384-28.672 6.144-43.008-10.24-14.336-28.672-16.384-43.008-6.144l-114.688 86.016v-266.24c0-16.384-14.336-30.72-30.72-30.72s-30.72 14.336-30.72 30.72v266.24l-114.688-86.016c-14.336-10.24-32.768-8.192-43.008 6.144s-8.192 32.768 6.144 43.008l163.84 122.88 2.048 2.048c6.144 4.096 10.24 4.096 16.384 4.096 6.144 0 12.288-2.048 16.384-4.096l2.048-2.048z" fill="#5c6275" /></svg>