<?xml version="1.0" standalone="no"?><!DOCTYPE svg PUBLIC "-//W3C//DTD SVG 1.1//EN" "http://www.w3.org/Graphics/SVG/1.1/DTD/svg11.dtd"><svg class="icon" width="200px" height="200.00px" viewBox="0 0 1024 1024" version="1.1" xmlns="http://www.w3.org/2000/svg"><path d="M853.333333 256h-50.773333l-85.333333-101.973333a21.077333 21.077333 0 0 0-29.866667-2.56c-8.96 7.68-10.24 20.906667-2.56 29.866666L747.093333 256H170.666667c-46.933333 0-85.333333 38.4-85.333334 85.333333v426.666667c0 46.933333 38.4 85.333333 85.333334 85.333333h682.666666c46.933333 0 85.333333-38.4 85.333334-85.333333V341.333333c0-46.933333-38.4-85.333333-85.333334-85.333333zM426.666667 704H213.333333c-11.946667 0-21.333333-9.386667-21.333333-21.333333s9.386667-21.333333 21.333333-21.333334h213.333334c11.946667 0 21.333333 9.386667 21.333333 21.333334s-9.386667 21.333333-21.333333 21.333333z m0-128H213.333333c-11.946667 0-21.333333-9.386667-21.333333-21.333333s9.386667-21.333333 21.333333-21.333334h213.333334c11.946667 0 21.333333 9.386667 21.333333 21.333334s-9.386667 21.333333-21.333333 21.333333z m0-128H213.333333c-11.946667 0-21.333333-9.386667-21.333333-21.333333s9.386667-21.333333 21.333333-21.333334h213.333334c11.946667 0 21.333333 9.386667 21.333333 21.333334s-9.386667 21.333333-21.333333 21.333333z m256 234.666667c-70.826667 0-128-57.173333-128-128s57.173333-128 128-128 128 57.173333 128 128-57.173333 128-128 128z" /></svg>