<?xml version="1.0" standalone="no"?><!DOCTYPE svg PUBLIC "-//W3C//DTD SVG 1.1//EN" "http://www.w3.org/Graphics/SVG/1.1/DTD/svg11.dtd"><svg class="icon" width="200px" height="200.00px" viewBox="0 0 1024 1024" version="1.1" xmlns="http://www.w3.org/2000/svg"><path d="M896 64c35.2 0 64 28.8 64 64v768c0 35.2-28.8 64-64 64H128c-35.2 0-64-28.8-64-64V128c0-35.2 28.8-64 64-64h768m0-64H128C57.6 0 0 57.6 0 128v768c0 70.4 57.6 128 128 128h768c70.4 0 128-57.6 128-128V128c0-70.4-57.6-128-128-128zM131.2 342.4V294.4c108.8-32 182.4-86.4 220.8-160h89.6c-16 28.8-28.8 51.2-38.4 64h307.2v51.2c-35.2 38.4-67.2 70.4-99.2 92.8h182.4v163.2c3.2 70.4-32 102.4-99.2 99.2h-179.2c-3.2 3.2-3.2 9.6-6.4 19.2s-6.4 16-9.6 19.2h73.6v112c-3.2 35.2 12.8 51.2 44.8 48h137.6c32 3.2 48-9.6 44.8-38.4v-32h64v41.6c3.2 57.6-28.8 86.4-92.8 83.2h-179.2c-70.4 3.2-102.4-28.8-99.2-89.6v-115.2c-48 92.8-166.4 169.6-355.2 230.4V832c160-64 256-137.6 288-227.2h-224v-262.4h304C544 320 576 288 604.8 249.6h-249.6c-44.8 44.8-121.6 73.6-224 92.8z m153.6 208h160c9.6-35.2 12.8-73.6 12.8-118.4v-28.8H284.8v147.2z m428.8-147.2h-176v25.6c0 44.8-3.2 83.2-9.6 124.8h134.4c35.2 3.2 54.4-16 51.2-51.2v-99.2z" /></svg>