<?xml version="1.0" standalone="no"?><!DOCTYPE svg PUBLIC "-//W3C//DTD SVG 1.1//EN" "http://www.w3.org/Graphics/SVG/1.1/DTD/svg11.dtd"><svg class="icon" width="200px" height="200.00px" viewBox="0 0 1024 1024" version="1.1" xmlns="http://www.w3.org/2000/svg"><path d="M627.626667 44.501333A42.666667 42.666667 0 0 0 597.333333 85.333333v577.493334A170.666667 170.666667 0 1 0 682.666667 810.666667V196.522667c29.952 25.856 61.226667 46.72 90.709333 64.853333 13.44 8.32 27.178667 16.384 40.576 24.277333 13.568 7.936 26.709333 15.658667 38.784 23.168 23.808 14.72 42.24 27.861333 55.765333 41.386667 16.085333 16.042667 16.853333 36.864 5.546667 64.682667a654.208 654.208 0 0 1-42.922667 82.901333c-13.994667 20.394667-18.005333 51.285333-2.005333 65.28 16.981333 14.933333 50.346667 4.352 70.4-23.978667 21.674667-30.592 39.424-57.173333 53.589333-92.117333 16.469333-40.448 27.904-104.96-24.277333-157.141333-20.650667-20.650667-45.909333-37.930667-71.168-53.546667a2001.664 2001.664 0 0 0-40.832-24.448 2173.44 2173.44 0 0 1-38.741333-23.125333c-53.76-33.066667-105.088-70.784-142.592-127.061334a42.666667 42.666667 0 0 0-47.872-17.152zM597.333333 810.666667a85.333333 85.333333 0 1 1-170.666666 0 85.333333 85.333333 0 0 1 170.666666 0zM85.333333 170.666667a42.666667 42.666667 0 0 0 0 85.333333h384a42.666667 42.666667 0 1 0 0-85.333333H85.333333z" fill="#000000" /><path d="M42.666667 384a42.666667 42.666667 0 0 1 42.666666-42.666667h384a42.666667 42.666667 0 1 1 0 85.333334H85.333333a42.666667 42.666667 0 0 1-42.666666-42.666667zM85.333333 512a42.666667 42.666667 0 1 0 0 85.333333h256a42.666667 42.666667 0 1 0 0-85.333333H85.333333z" fill="#000000" /></svg>