<?xml version="1.0" standalone="no"?><!DOCTYPE svg PUBLIC "-//W3C//DTD SVG 1.1//EN" "http://www.w3.org/Graphics/SVG/1.1/DTD/svg11.dtd"><svg class="icon" width="200px" height="200.00px" viewBox="0 0 1024 1024" version="1.1" xmlns="http://www.w3.org/2000/svg"><path d="M512 963.025455a142.429091 142.429091 0 0 1-69.818182-18.618182L172.683636 791.272727a139.636364 139.636364 0 0 1-69.818181-121.018182V356.072727a139.636364 139.636364 0 0 1 69.818181-121.018182L442.181818 79.592727a139.636364 139.636364 0 0 1 139.636364 0l269.498182 155.461818a139.636364 139.636364 0 0 1 69.818181 121.018182v311.854546a139.636364 139.636364 0 0 1-69.818181 121.018182l-269.498182 155.461818a142.429091 142.429091 0 0 1-69.818182 18.618182z m0-808.96a46.545455 46.545455 0 0 0-23.272727 6.516363L219.229091 316.043636a46.545455 46.545455 0 0 0-23.272727 40.029091v311.854546a46.545455 46.545455 0 0 0 23.272727 40.494545l269.498182 154.996364a46.545455 46.545455 0 0 0 46.545454 0l269.498182-155.461818a46.545455 46.545455 0 0 0 23.272727-40.029091v-311.854546a46.545455 46.545455 0 0 0-23.272727-40.029091L535.272727 160.581818a46.545455 46.545455 0 0 0-23.272727-6.516363z" fill="#444444" /><path d="M512 698.181818a186.181818 186.181818 0 1 1 186.181818-186.181818 186.181818 186.181818 0 0 1-186.181818 186.181818z m0-279.272727a93.090909 93.090909 0 1 0 93.090909 93.090909 93.090909 93.090909 0 0 0-93.090909-93.090909z" fill="#444444" /></svg>