<?xml version="1.0" standalone="no"?><!DOCTYPE svg PUBLIC "-//W3C//DTD SVG 1.1//EN" "http://www.w3.org/Graphics/SVG/1.1/DTD/svg11.dtd"><svg class="icon" width="200px" height="200.00px" viewBox="0 0 1024 1024" version="1.1" xmlns="http://www.w3.org/2000/svg"><path d="M956.024198 1024H67.628612A38.78154 38.78154 0 0 1 28.847072 985.076403V360.594169a39.065654 39.065654 0 0 1 16.080844-31.536637L489.111503 7.440658a38.298546 38.298546 0 0 1 45.458216 0l444.211998 321.616874A39.037242 39.037242 0 0 1 994.83415 360.594169v624.482234a38.753129 38.753129 0 0 1-38.809952 38.923597z m-269.680863-338.379591a39.037242 39.037242 0 0 0-54.691915-7.102846 219.279067 219.279067 0 0 1-265.788503-0.568228 38.923597 38.923597 0 0 0-47.219722 61.936819 298.007014 298.007014 0 0 0 360.824585 0 38.667894 38.667894 0 0 0 6.875555-54.265745z" fill="#4D4D4D" /></svg>