<?xml version="1.0" standalone="no"?><!DOCTYPE svg PUBLIC "-//W3C//DTD SVG 1.1//EN" "http://www.w3.org/Graphics/SVG/1.1/DTD/svg11.dtd"><svg class="icon" width="200px" height="199.61px" viewBox="0 0 1026 1024" version="1.1" xmlns="http://www.w3.org/2000/svg"><path d="M1024 396.8c-6.4-19.2-19.2-32-38.4-38.4l-294.4-51.2-128-275.2C550.4 12.8 531.2 0 512 0c-19.2 0-38.4 12.8-44.8 32l-128 275.2-294.4 57.6c-19.2 0-38.4 12.8-44.8 38.4 0 19.2 0 38.4 12.8 51.2l211.2 204.8-51.2 300.8c-6.4 19.2 6.4 38.4 19.2 51.2 12.8 12.8 44.8 6.4 51.2 6.4L512 883.2l262.4 134.4c6.4 6.4 38.4 12.8 51.2-6.4 12.8-12.8 25.6-32 19.2-51.2l-51.2-300.8 211.2-204.8c19.2-12.8 25.6-38.4 19.2-57.6z m0 0" fill="#7C7272" /></svg>