<?xml version="1.0" standalone="no"?><!DOCTYPE svg PUBLIC "-//W3C//DTD SVG 1.1//EN" "http://www.w3.org/Graphics/SVG/1.1/DTD/svg11.dtd"><svg class="icon" width="200px" height="200.00px" viewBox="0 0 1024 1024" version="1.1" xmlns="http://www.w3.org/2000/svg"><path d="M298.666667 330.666667a181.333333 181.333333 0 0 0 0 362.666666c25.472 0 44.586667-4.565333 60.032-12.117333 15.445333-7.509333 28.970667-18.858667 42.069333-34.816 23.04-28.16 41.941333-66.474667 66.858667-116.949333 4.992-10.112 10.24-20.693333 15.786666-31.744l14.506667-29.44c24.789333-50.389333 47.658667-96.853333 75.818667-131.2 17.493333-21.376 37.973333-39.381333 63.573333-51.84 25.6-12.458667 54.613333-18.56 88.021333-18.56a245.333333 245.333333 0 1 1-147.2 441.6 32 32 0 0 1 38.4-51.2A181.333333 181.333333 0 1 0 725.333333 330.666667c-25.472 0-44.586667 4.565333-60.032 12.117333-15.445333 7.509333-28.970667 18.858667-42.069333 34.816-23.04 28.16-41.941333 66.474667-66.858667 116.949333-4.992 10.112-10.24 20.693333-15.786666 31.744l-14.506667 29.44c-24.789333 50.389333-47.658667 96.853333-75.818667 131.2-17.493333 21.376-37.973333 39.381333-63.573333 51.84-25.6 12.458667-54.613333 18.56-88.021333 18.56A245.333333 245.333333 0 1 1 445.909333 315.733333a32 32 0 1 1-38.442666 51.2A180.394667 180.394667 0 0 0 298.666667 330.666667z" /></svg>