<?xml version="1.0" standalone="no"?><!DOCTYPE svg PUBLIC "-//W3C//DTD SVG 1.1//EN" "http://www.w3.org/Graphics/SVG/1.1/DTD/svg11.dtd"><svg class="icon" width="200px" height="200.00px" viewBox="0 0 1024 1024" version="1.1" xmlns="http://www.w3.org/2000/svg"><path d="M512 86.109091C267.636364 86.109091 67.490909 256 67.490909 463.127273c0 148.945455 102.4 283.927273 262.981818 344.436363 0 16.290909-11.636364 53.527273-27.927272 86.109091-4.654545 9.309091-4.654545 20.945455 2.327272 30.254546 4.654545 9.309091 16.290909 13.963636 25.6 13.963636 4.654545 0 128-2.327273 209.454546-97.745454 235.054545-11.636364 416.581818-174.545455 416.581818-377.018182C956.509091 256 756.363636 86.109091 512 86.109091z m41.890909 502.690909H290.909091c-16.290909 0-30.254545-16.290909-30.254546-34.909091s13.963636-34.909091 30.254546-34.909091h262.981818c16.290909 0 30.254545 16.290909 30.254546 34.909091s-13.963636 34.909091-30.254546 34.909091z m160.581818-174.545455h-418.909091c-16.290909 0-30.254545-16.290909-30.254545-34.90909s13.963636-34.909091 30.254545-34.909091h418.909091c16.290909 0 30.254545 16.290909 30.254546 34.909091s-13.963636 34.909091-30.254546 34.90909z"  /></svg>